<svg width="581" height="228" viewBox="0 0 581 228" fill="none" xmlns="http://www.w3.org/2000/svg">
<path d="M0.524681 182.315V150.73L93.5657 3.72727H119.904V48.6953H103.844L41.2101 147.946V149.659H171.082V182.315H0.524681ZM105.129 223V172.679L105.557 158.546V3.72727H143.031V223H105.129ZM290 227.176C272.37 227.176 257.238 222.714 244.604 213.792C232.042 204.799 222.37 191.844 215.589 174.927C208.88 157.939 205.525 137.489 205.525 113.578C205.596 89.6662 208.987 69.3235 215.696 52.5497C222.477 35.7045 232.149 22.8565 244.711 14.0057C257.345 5.15482 272.442 0.729395 290 0.729395C307.559 0.729395 322.656 5.15482 335.29 14.0057C347.924 22.8565 357.595 35.7045 364.305 52.5497C371.086 69.3949 374.476 89.7376 374.476 113.578C374.476 137.561 371.086 158.046 364.305 175.034C357.595 191.951 347.924 204.87 335.29 213.792C322.727 222.714 307.631 227.176 290 227.176ZM290 193.664C303.705 193.664 314.519 186.918 322.442 173.428C330.436 159.866 334.433 139.916 334.433 113.578C334.433 96.1616 332.613 81.5291 328.973 69.6804C325.333 57.8317 320.193 48.9094 313.555 42.9137C306.917 36.8466 299.065 33.813 290 33.813C276.367 33.813 265.589 40.5939 257.666 54.1557C249.743 67.6461 245.746 87.4535 245.675 113.578C245.603 131.065 247.352 145.769 250.921 157.689C254.561 169.609 259.701 178.603 266.339 184.67C272.977 190.666 280.864 193.664 290 193.664ZM409.749 182.315V150.73L502.79 3.72727H529.128V48.6953H513.068L450.434 147.946V149.659H580.306V182.315H409.749ZM514.353 223V172.679L514.781 158.546V3.72727H552.255V223H514.353Z" fill="url(#paint0_linear_310_34702)" fill-opacity="0.7"/>
<defs>
<linearGradient id="paint0_linear_310_34702" x1="290.5" y1="-69" x2="290.5" y2="206.232" gradientUnits="userSpaceOnUse">
<stop stop-color="#8AB5A4"/>
<stop offset="0.719926" stop-color="#8AB5A4" stop-opacity="0.08"/>
<stop offset="1" stop-color="#8AB5A4" stop-opacity="0"/>
</linearGradient>
</defs>
</svg>
